<?xml version="1.0" standalone="no"?>
<!DOCTYPE svg PUBLIC "-//W3C//DTD SVG 20010904//EN"
 "http://www.w3.org/TR/2001/REC-SVG-20010904/DTD/svg10.dtd">
<svg version="1.0" xmlns="http://www.w3.org/2000/svg"
 width="999.000000pt" height="999.000000pt" viewBox="0 0 999.000000 999.000000"
 preserveAspectRatio="xMidYMid meet">

<g transform="translate(0.000000,999.000000) scale(0.100000,-0.100000)"
fill="#000000" stroke="none">
<path d="M7178 8188 l-3 -863 -2552 -3 -2553 -2 0 -860 0 -860 -860 0 -860 0
0 -1185 0 -1185 1185 0 1185 0 0 860 0 860 520 0 520 0 2 -2047 3 -2048 1185
0 1185 0 3 2048 2 2047 845 0 845 0 0 860 0 860 860 0 860 0 0 1190 0 1190
-1185 0 -1185 0 -2 -862z m1722 -328 l0 -540 -535 0 -535 0 0 540 0 540 535 0
535 0 0 -540z m-1720 -1725 l0 -535 -845 0 -845 0 0 -2045 0 -2045 -540 0
-540 0 0 2045 0 2045 -845 0 -845 0 0 535 0 535 2230 0 2230 0 0 -535z m-5110
-1720 l0 -535 -535 0 -535 0 0 535 0 535 535 0 535 0 0 -535z"/>
</g>
</svg>
